<svg width="24" height="24" viewBox="0 0 24 24" fill="none" xmlns="http://www.w3.org/2000/svg">
<g id="Frame" clip-path="url(#clip0_6_211)">
<path id="Vector" d="M19.5 12.5717L12 19.9997L4.5 12.5717C4.0053 12.0904 3.61564 11.5118 3.35554 10.8724C3.09545 10.233 2.97056 9.5467 2.98873 8.85668C3.00691 8.16667 3.16776 7.48789 3.46115 6.86309C3.75455 6.23829 4.17413 5.681 4.69348 5.22633C5.21283 4.77165 5.8207 4.42944 6.47881 4.22123C7.13691 4.01302 7.831 3.94333 8.51736 4.01655C9.20373 4.08977 9.8675 4.30431 10.4669 4.64666C11.0662 4.98901 11.5882 5.45175 12 6.00575C12.4135 5.45577 12.9361 4.99707 13.5351 4.65835C14.1341 4.31964 14.7965 4.1082 15.4809 4.03727C16.1654 3.96634 16.8571 4.03745 17.5128 4.24614C18.1685 4.45484 18.774 4.79662 19.2915 5.25011C19.8091 5.7036 20.2274 6.25903 20.5204 6.88164C20.8134 7.50425 20.9747 8.18063 20.9943 8.86846C21.0139 9.55628 20.8913 10.2407 20.6341 10.879C20.377 11.5173 19.9909 12.0956 19.5 12.5777" stroke="#131318" stroke-opacity="0.5" stroke-width="1.5" stroke-linecap="round" stroke-linejoin="round"/>
</g>
<defs>
<clipPath id="clip0_6_211">
<rect width="24" height="24" fill="white" transform="translate(0 -0.000244141)"/>
</clipPath>
</defs>
</svg>
