<svg width="24" height="24" viewBox="0 0 24 24" fill="none" xmlns="http://www.w3.org/2000/svg">
<g id="Frame" clip-path="url(#clip0_6_207)">
<path id="Vector" d="M10 11.9998C10 12.5302 10.2107 13.0389 10.5858 13.414C10.9609 13.789 11.4696 13.9998 12 13.9998C12.5304 13.9998 13.0391 13.789 13.4142 13.414C13.7893 13.0389 14 12.5302 14 11.9998C14 11.4693 13.7893 10.9606 13.4142 10.5855C13.0391 10.2105 12.5304 9.99976 12 9.99976C11.4696 9.99976 10.9609 10.2105 10.5858 10.5855C10.2107 10.9606 10 11.4693 10 11.9998Z" stroke="#131318" stroke-opacity="0.5" stroke-width="1.5" stroke-linecap="round" stroke-linejoin="round"/>
<path id="Vector_2" d="M21 11.9998C18.6 15.9998 15.6 17.9998 12 17.9998C8.4 17.9998 5.4 15.9998 3 11.9998C5.4 7.99976 8.4 5.99976 12 5.99976C15.6 5.99976 18.6 7.99976 21 11.9998Z" stroke="#131318" stroke-opacity="0.5" stroke-width="1.5" stroke-linecap="round" stroke-linejoin="round"/>
</g>
<defs>
<clipPath id="clip0_6_207">
<rect width="24" height="24" fill="white" transform="translate(0 -0.000244141)"/>
</clipPath>
</defs>
</svg>
